
<svg version="1.1" id="Layer_1" xmlns="http://www.w3.org/2000/svg" xmlns:xlink="http://www.w3.org/1999/xlink" x="0px" y="0px"
	 viewBox="0 0 396.8 207.6" style="enable-background:new 0 0 396.8 207.6;" xml:space="preserve">
<style type="text/css">
	.st0{opacity:0.8;}
	.st1{fill:#FED105;}
	.st2{fill:#415DA5;}
</style>
<g>
	<g id="a">
		<g>
			<g>
				<g class="st0">
					<polygon class="st1" points="70.3,128.2 44.7,128.2 42.4,133.7 68,133.7 					"/>
					<polygon class="st1" points="90.1,148 61.9,148 66.1,138.1 40.5,138.1 36.3,148 36.3,173.4 90.1,173.4 90.1,205.5 117.4,205.5 
						117.4,173.4 130.6,173.4 130.6,148 117.4,148 117.4,138.1 90.1,138.1 					"/>
					<rect x="90.1" y="128.2" class="st1" width="27.4" height="5.5"/>
					<rect x="153.7" y="128.2" class="st1" width="27.9" height="5.5"/>
					<rect x="210.4" y="128.2" class="st1" width="27.9" height="5.5"/>
					<path class="st1" d="M210.4,164.7c0,12.7-5.6,17.5-14.4,17.5s-14.4-4.8-14.4-17.5v-26.6h-27.9V163c0,28.4,14.9,44.6,42.3,44.6
						s42.3-16.2,42.3-44.6v-24.8h-27.9V164.7z"/>
					<rect x="316.1" y="128.2" class="st1" width="27.4" height="5.5"/>
					<path class="st1" d="M92,138.1h27.4v-4.4H92V138.1z M155.6,138.1h27.9v-4.4h-27.9V138.1z M42.4,138.1H68l1.9-4.4H44.3
						C44.3,133.7,42.4,138.1,42.4,138.1z M318,133.7v4.4h27.4v-4.4H318z M268.5,138.1h25.6l1.9-4.4h-25.6L268.5,138.1z M212.4,138.1
						h27.9v-4.4h-27.9V138.1z"/>
					<polygon class="st1" points="316.1,148 288,148 292.2,138.1 266.6,138.1 262.4,148 262.4,173.4 316.1,173.4 316.1,205.5 
						343.5,205.5 343.5,173.4 356.7,173.4 356.7,148 343.5,148 343.5,138.1 316.1,138.1 					"/>
					<polygon class="st1" points="270.8,128.2 268.5,133.7 294,133.7 296.4,128.2 					"/>
					<path class="st1" d="M41.5,128.2H67l8.6-20.5H50.1L41.5,128.2L41.5,128.2z M86.8,128.2h27.4v-20.5H86.8V128.2z M150.4,128.2
						h27.9v-20.5h-27.9V128.2z M312.9,107.7v20.5h27.4v-20.5H312.9z M267.5,128.2h25.6l8.6-20.5h-25.6L267.5,128.2L267.5,128.2z
						 M207.2,128.2h27.9v-20.5h-27.9V128.2z"/>
					<g>
						<polygon class="st1" points="117.4,28.1 87,28.1 79.5,45.9 117.4,45.9 						"/>
						<polygon class="st1" points="76,45.9 70,60 113.9,60 113.9,45.9 						"/>
						<polygon class="st1" points="53.4,107.7 78.9,107.7 90.1,81.4 90.1,107.7 117.4,107.7 117.4,60 73.5,60 						"/>
						<path class="st1" d="M155.4,45.9c-2.1,4.1-3.6,8.9-4.4,14.2h28.4c2.1-6.1,6.8-8.6,13.1-8.6s11,2.5,13.1,8.6H234
							c-0.8-5.3-2.3-10-4.4-14.2H155.4L155.4,45.9z"/>
						<path class="st1" d="M153.7,70.7v37h27.9V68.9c0-3.6,0.5-6.5,1.3-8.9h-28.4C153.9,63.3,153.7,66.9,153.7,70.7z"/>
						<path class="st1" d="M210.4,68.9v38.8h27.9v-37c0-3.8-0.3-7.3-0.8-10.7h-28.4C210,62.4,210.4,65.3,210.4,68.9z"/>
						<path class="st1" d="M196,26.1c-17.9,0-30.5,7-37.1,19.7h74.2C226.5,33.1,213.9,26.1,196,26.1L196,26.1z"/>
						<polygon class="st1" points="279.5,107.7 305,107.7 316.1,81.4 316.1,107.7 343.5,107.7 343.5,60 299.6,60 						"/>
						<polygon class="st1" points="302.1,45.9 296.1,60 340,60 340,45.9 						"/>
						<polygon class="st1" points="343.5,28.1 313.1,28.1 305.6,45.9 343.5,45.9 						"/>
					</g>
				</g>
				<g class="st0">
					<polygon class="st2" points="62.6,128.2 37,128.2 34.7,133.7 60.3,133.7 					"/>
					<polygon class="st2" points="82.4,148 54.3,148 58.4,138.1 32.8,138.1 28.7,148 28.7,173.4 82.4,173.4 82.4,205.5 109.8,205.5 
						109.8,173.4 122.9,173.4 122.9,148 109.8,148 109.8,138.1 82.4,138.1 					"/>
					<rect x="82.4" y="128.2" class="st2" width="27.4" height="5.5"/>
					<rect x="146" y="128.2" class="st2" width="27.9" height="5.5"/>
					<rect x="202.8" y="128.2" class="st2" width="27.9" height="5.5"/>
					<path class="st2" d="M202.8,164.7c0,12.7-5.6,17.5-14.4,17.5s-14.4-4.8-14.4-17.5v-26.6H146V163c0,28.4,14.9,44.6,42.3,44.6
						s42.3-16.2,42.3-44.6v-24.8h-27.9V164.7z"/>
					<rect x="308.5" y="128.2" class="st2" width="27.4" height="5.5"/>
					<path class="st2" d="M84.3,138.1h27.4v-4.4H84.3V138.1z M147.9,138.1h27.9v-4.4h-27.9V138.1z M34.7,138.1h25.6l1.9-4.4H36.6
						L34.7,138.1z M310.4,133.7v4.4h27.4v-4.4H310.4z M260.8,138.1h25.6l1.9-4.4h-25.6L260.8,138.1z M204.7,138.1h27.9v-4.4h-27.9
						V138.1z"/>
					<polygon class="st2" points="308.5,148 280.3,148 284.5,138.1 258.9,138.1 254.8,148 254.8,173.4 308.5,173.4 308.5,205.5 
						335.9,205.5 335.9,173.4 349,173.4 349,148 335.9,148 335.9,138.1 308.5,138.1 					"/>
					<polygon class="st2" points="263.1,128.2 260.8,133.7 286.4,133.7 288.7,128.2 					"/>
					<path class="st2" d="M33.8,128.2h25.6l8.6-20.5H42.4L33.8,128.2L33.8,128.2z M79.1,128.2h27.4v-20.5H79.1V128.2z M142.8,128.2
						h27.9v-20.5h-27.9V128.2z M305.2,107.7v20.5h27.4v-20.5H305.2z M259.9,128.2h25.6l8.6-20.5h-25.6L259.9,128.2L259.9,128.2z
						 M199.5,128.2h27.9v-20.5h-27.9V128.2z"/>
					<g>
						<polygon class="st2" points="109.8,28.1 79.3,28.1 71.9,45.9 109.8,45.9 						"/>
						<polygon class="st2" points="68.3,45.9 62.4,60 106.3,60 106.3,45.9 						"/>
						<polygon class="st2" points="45.7,107.7 71.3,107.7 82.4,81.4 82.4,107.7 109.8,107.7 109.8,60 65.9,60 						"/>
						<path class="st2" d="M147.7,45.9c-2.1,4.1-3.6,8.9-4.4,14.2h28.4c2.1-6.1,6.8-8.6,13.1-8.6s11,2.5,13.1,8.6h28.4
							c-0.8-5.3-2.3-10-4.4-14.2H147.7L147.7,45.9z"/>
						<path class="st2" d="M146,70.7v37h27.9V68.9c0-3.6,0.5-6.5,1.3-8.9h-28.4C146.3,63.3,146,66.9,146,70.7z"/>
						<path class="st2" d="M202.8,68.9v38.8h27.9v-37c0-3.8-0.3-7.3-0.8-10.7h-28.4C202.3,62.4,202.8,65.3,202.8,68.9z"/>
						<path class="st2" d="M188.3,26.1c-17.9,0-30.5,7-37.1,19.7h74.2C218.9,33.1,206.3,26.1,188.3,26.1L188.3,26.1z"/>
						<polygon class="st2" points="271.8,107.7 297.4,107.7 308.5,81.4 308.5,107.7 335.9,107.7 335.9,60 292,60 						"/>
						<polygon class="st2" points="294.4,45.9 288.5,60 332.3,60 332.3,45.9 						"/>
						<polygon class="st2" points="335.9,28.1 305.4,28.1 297.9,45.9 335.9,45.9 						"/>
					</g>
				</g>
				<g class="st0">
					<polygon points="68.1,128.2 42.5,128.2 40.2,133.7 65.8,133.7 					"/>
					<polygon points="87.9,148 59.7,148 63.9,138.1 38.3,138.1 34.1,148 34.1,173.4 87.9,173.4 87.9,205.5 115.2,205.5 115.2,173.4 
						128.4,173.4 128.4,148 115.2,148 115.2,138.1 87.9,138.1 					"/>
					<rect x="87.9" y="128.2" width="27.4" height="5.5"/>
					<rect x="151.5" y="128.2" width="27.9" height="5.5"/>
					<rect x="208.3" y="128.2" width="27.9" height="5.5"/>
					<path d="M208.3,164.7c0,12.7-5.6,17.5-14.4,17.5s-14.4-4.8-14.4-17.5v-26.6h-27.9V163c0,28.4,14.9,44.6,42.3,44.6
						s42.3-16.2,42.3-44.6v-24.8h-27.9V164.7z"/>
					<rect x="314" y="128.2" width="27.4" height="5.5"/>
					<path d="M89.8,138.1h27.4v-4.4H89.8V138.1z M153.4,138.1h27.9v-4.4h-27.9V138.1z M40.2,138.1h25.6l1.9-4.4H42.1
						C42.1,133.7,40.2,138.1,40.2,138.1z M315.9,133.7v4.4h27.4v-4.4H315.9z M266.3,138.1h25.6l1.9-4.4h-25.6L266.3,138.1z
						 M210.2,138.1H238v-4.4h-27.9V138.1z"/>
					<polygon points="314,148 285.8,148 290,138.1 264.4,138.1 260.2,148 260.2,173.4 314,173.4 314,205.5 341.3,205.5 341.3,173.4 
						354.5,173.4 354.5,148 341.3,148 341.3,138.1 314,138.1 					"/>
					<polygon points="268.6,128.2 266.3,133.7 291.9,133.7 294.2,128.2 					"/>
					<path d="M38.9,129.3h25.6l8.6-20.5H47.6L38.9,129.3L38.9,129.3z M84.3,129.3h27.4v-20.5H84.3V129.3z M147.9,129.3h27.9v-20.5
						h-27.9V129.3z M310.4,108.9v20.5h27.4v-20.5H310.4z M265,129.3h25.6l8.6-20.5h-25.6L265,129.3L265,129.3z M204.7,129.3h27.9
						v-20.5h-27.9V129.3z"/>
					<g>
						<polygon points="115.2,28.1 84.8,28.1 77.3,45.9 115.2,45.9 						"/>
						<polygon points="73.8,45.9 67.8,60 111.7,60 111.7,45.9 						"/>
						<polygon points="51.2,107.7 76.7,107.7 87.9,81.4 87.9,107.7 115.2,107.7 115.2,60 71.3,60 						"/>
						<path d="M153.2,45.9c-2.1,4.1-3.6,8.9-4.4,14.2h28.4c2.1-6.1,6.8-8.6,13.1-8.6s11,2.5,13.1,8.6h28.4c-0.8-5.3-2.3-10-4.4-14.2
							H153.2L153.2,45.9z"/>
						<path d="M151.5,70.7v37h27.9V68.9c0-3.6,0.5-6.5,1.3-8.9h-28.4C151.8,63.3,151.5,66.9,151.5,70.7z"/>
						<path d="M208.3,68.9v38.8h27.9v-37c0-3.8-0.3-7.3-0.8-10.7H207C207.8,62.4,208.3,65.3,208.3,68.9z"/>
						<path d="M193.8,26.1c-17.9,0-30.5,7-37.1,19.7h74.2C224.3,33.1,211.7,26.1,193.8,26.1L193.8,26.1z"/>
						<polygon points="277.3,107.7 302.8,107.7 314,81.4 314,107.7 341.3,107.7 341.3,60 297.4,60 						"/>
						<polygon points="299.9,45.9 293.9,60 337.8,60 337.8,45.9 						"/>
						<polygon points="341.3,28.1 310.9,28.1 303.4,45.9 341.3,45.9 						"/>
					</g>
				</g>
			</g>
			<rect x="256.4" y="184.1" class="st2" width="72.8" height="5.8"/>
			<rect x="295.4" y="187.6" class="st1" width="21" height="8.5"/>
			<rect x="92.6" y="112.7" class="st2" width="72.8" height="5.8"/>
			<rect x="131.6" y="116.2" class="st1" width="21" height="8.5"/>
			<rect x="13" y="170.5" class="st2" width="39.9" height="3.2"/>
			<rect x="34.4" y="172.4" class="st1" width="11.5" height="4.6"/>
			<rect x="356" y="74.4" class="st2" width="25.8" height="5.6"/>
			<rect x="371.1" y="77" class="st1" width="25.8" height="5.6"/>
			<g>
				<rect x="151.6" y="0" class="st2" width="133.8" height="3.6"/>
				<rect x="141.7" y="1.6" class="st1" width="16" height="5.6"/>
			</g>
			<g>
				<rect x="10" y="80.8" class="st1" width="114.6" height="3.6"/>
				<rect y="82.4" class="st2" width="16" height="5.6"/>
			</g>
		</g>
	</g>
</g>
</svg>
