<svg width="800px" height="800px" viewBox="0 -12 66.417 66.417" xmlns="http://www.w3.org/2000/svg">
  <path id="Path_25" data-name="Path 25" d="M330.538,933.924h0v-.017c0-.029-.007-.057-.009-.086a1.353,1.353,0,0,0-.02-.2,1.279,1.279,0,0,0-.04-.138,1.467,1.467,0,0,0-.044-.143,1.555,1.555,0,0,0-.09-.172c-.015-.027-.026-.057-.044-.084l0-.006a1.815,1.815,0,0,0-.386-.394l-.023-.02a1.569,1.569,0,0,0-.166-.089c-.031-.016-.06-.036-.092-.05a1.721,1.721,0,0,0-.189-.059,1.422,1.422,0,0,0-.16-.034,1.529,1.529,0,0,0-.223-.023H265.612a1.529,1.529,0,0,0-.224.023,1.408,1.408,0,0,0-.159.034,1.811,1.811,0,0,0-.19.059c-.032.014-.06.034-.091.05a1.473,1.473,0,0,0-.166.089l-.023.02a1.43,1.43,0,0,0-.255.232,1.461,1.461,0,0,0-.132.162l-.005.006c-.018.027-.028.057-.044.084a1.394,1.394,0,0,0-.089.172,1.474,1.474,0,0,0-.045.143c-.013.046-.03.09-.039.138a1.5,1.5,0,0,0-.021.2c0,.029-.008.057-.008.086v.017h0v39.414a1.559,1.559,0,0,0,.02.192c0,.034.005.07.012.1.011.05.03.1.046.148a1.232,1.232,0,0,0,.044.134,1.026,1.026,0,0,0,.053.1,1.518,1.518,0,0,0,.092.163l.008.014c.012.016.027.027.039.043a1.422,1.422,0,0,0,.178.194c.028.026.058.049.088.073a1.49,1.49,0,0,0,.183.122c.033.019.065.038.1.054a1.546,1.546,0,0,0,.225.082c.028.008.055.019.083.026a1.542,1.542,0,0,0,.329.038h63.417a1.533,1.533,0,0,0,.328-.038c.029-.007.056-.018.084-.026a1.546,1.546,0,0,0,.225-.082c.034-.016.066-.036.1-.054a1.593,1.593,0,0,0,.182-.121c.031-.024.061-.048.09-.075a1.4,1.4,0,0,0,.176-.193c.012-.016.028-.026.039-.043l.008-.014a1.374,1.374,0,0,0,.093-.163c.017-.032.038-.064.053-.1s.029-.089.044-.134.035-.1.046-.148c.007-.033.007-.069.012-.1a1.388,1.388,0,0,0,.019-.192l0-.017Zm-63.417,2.763,24.66,16.214-24.66,17.515Zm30.209,16.272-26.7-17.553h53.4Zm-2.859,1.71,2.034,1.338a1.5,1.5,0,0,0,1.649,0l2.034-1.337,24.148,17.151H270.323Zm8.407-1.768,24.66-16.214v33.729Z" transform="translate(-264.121 -932.406)" />
</svg>